<?xml version="1.0" encoding="utf-8"?>
<!-- Generator: Adobe Illustrator 19.0.0, SVG Export Plug-In . SVG Version: 6.00 Build 0)  -->
<svg version="1.1" id="Layer_1" xmlns="http://www.w3.org/2000/svg" xmlns:xlink="http://www.w3.org/1999/xlink" x="0px" y="0px"
	 viewBox="0 0 195 200" style="enable-background:new 0 0 195 200;" xml:space="preserve">
<style type="text/css">
	.st0{fill:#999899;}
	.st1{fill:#C32032;}
	.st2{fill:#F78D2C;}
	.st3{fill:#2FB889;}
	.st4{fill:#0276A9;}
	.st5{fill:#78787A;}
	.st6{display:none;}
	.st7{display:inline;}
</style>
<g id="XMLID_32_">
	<g id="XMLID_2_">
		<g id="XMLID_44_">
			<g id="XMLID_75_">
				<path id="XMLID_80_" class="st0" d="M73,4.3c5.1,0,10.2,2.7,14.3,7.6c0.2,0.3,0.5,0.5,0.7,0.8c1,1.1,2.2,2.4,2.2,3.7v107.9
					c0,0.5-0.4,1.1-0.6,1.3c-7.8,6.5-15.9,10-23.3,10c-9.9,0-17.1-6.3-18.9-16.5l-0.6-3.3l-3.3-0.2c-1.4-0.1-3.8-1.5-6.3-5
					c-3.1-4.4-5.5-11.4-3.8-17.1l0.4-1.4l-0.6-1.4c-3.7-9-2.4-16.6-0.7-21.3c2.1-5.9,5.5-9.5,6.8-10.4l2.5-1.6l-0.6-2.9
					C39,44.6,48.9,29,54.1,27l2.4-0.9l0.3-2.6C58.1,11.8,64.5,4.3,73,4.3 M73,0c-9.8,0-18.8,7.7-20.4,23
					c-7.4,2.9-18.2,20.6-15.6,32.4c-4.7,3-15.5,18.1-7.8,37c-3.2,11.4,5.7,27,13.9,27.6c2.2,12.5,11.3,20.1,23.2,20.1
					c7.9,0,17.1-3.4,26.2-11c0.5-0.4,2.1-2.2,2.1-4.6V16.5c0-3.5-2.7-5.9-3.9-7.3C85.5,3,79.1,0,73,0L73,0z"/>
				<path id="XMLID_76_" class="st0" d="M120,4.3c8.5,0,14.9,7.5,16.2,19.1l0.3,2.6l2.4,0.9c5.2,2,15.1,17.6,12.9,27.4l-0.6,2.9
					l2.5,1.6c1.3,0.8,4.7,4.5,6.8,10.4c1.7,4.8,3,12.4-0.7,21.3l-0.6,1.4l0.4,1.4c1.6,5.7-0.8,12.7-3.8,17.1c-2.5,3.5-4.9,4.9-6.3,5
					l-3.3,0.2l-0.6,3.3c-1.8,10.2-9.1,16.5-18.9,16.5c-7.5,0-15.5-3.4-23.3-10c-0.2-0.2-0.6-0.8-0.6-1.3V16.5c0-1.3,1.2-2.7,2.2-3.7
					c0.3-0.3,0.5-0.6,0.7-0.8C109.7,7,114.8,4.3,120,4.3 M120,0c-6.1,0-12.5,3-17.6,9.2c-1.2,1.4-3.9,3.8-3.9,7.3v107.9
					c0,2.4,1.6,4.2,2.1,4.6c9.1,7.6,18.2,11,26.2,11c11.8,0,21-7.6,23.2-20.1c8.2-0.6,17.2-16.2,13.9-27.6c7.7-18.9-3-34-7.8-37
					c2.6-11.7-8.2-29.5-15.6-32.4C138.7,7.7,129.7,0,120,0L120,0z"/>
			</g>
			<path id="XMLID_54_" class="st1" d="M105.5,15.8c0,0,0.1,0.2,0.2,0.6c0.1,0.2,0.1,0.4,0.2,0.7c0.1,0.3,0.2,0.6,0.4,0.9
				c0.1,0.3,0.3,0.7,0.5,1c0.2,0.4,0.4,0.7,0.7,1.1c0.5,0.8,1.1,1.6,2,2.2c0.2,0.2,0.4,0.3,0.6,0.5c0.2,0.1,0.4,0.3,0.7,0.4
				c0.3,0.1,0.5,0.3,0.8,0.4c0.3,0.1,0.6,0.2,0.8,0.3c1.2,0.4,2.5,0.6,3.9,0.9c1.4,0.2,2.9,0.4,4.5,0.6c0.8,0.1,1.6,0.2,2.4,0.3
				c0.8,0.1,1.6,0.3,2.5,0.4c1.6,0.4,3.3,0.8,4.9,1.4c1.6,0.6,3.1,1.3,4.5,2.2c0.3,0.2,0.7,0.4,1,0.6c0.3,0.2,0.6,0.5,0.9,0.7
				c0.6,0.4,1.2,1,1.7,1.5c1.1,1,2,2,2.8,3.1c0.2,0.3,0.4,0.5,0.6,0.7c0.2,0.3,0.3,0.5,0.5,0.7c0.3,0.5,0.6,0.9,0.8,1.4
				c0.5,0.9,0.9,1.7,1.2,2.4c0.3,0.7,0.5,1.2,0.6,1.6c0.1,0.4,0.2,0.6,0.2,0.6s-0.1-0.2-0.4-0.4c-0.3-0.3-0.6-0.7-1.1-1.2
				c-0.5-0.5-1.1-1.1-1.7-1.8c-0.3-0.4-0.7-0.7-1.1-1.1c-0.2-0.2-0.4-0.4-0.6-0.6c-0.2-0.2-0.4-0.4-0.7-0.6c-0.9-0.8-1.9-1.5-3-2.3
				c-0.6-0.3-1.1-0.7-1.7-1.1c-0.3-0.2-0.6-0.3-0.9-0.5c-0.3-0.2-0.6-0.3-0.9-0.5c-0.6-0.3-1.3-0.6-2-0.9c-0.7-0.2-1.4-0.5-2.1-0.7
				c-0.4-0.1-0.7-0.2-1.1-0.3l-1.1-0.3c-0.7-0.2-1.5-0.4-2.2-0.5c-1.5-0.3-3.1-0.5-4.6-0.8c-1.6-0.3-3.1-0.5-4.7-0.9
				c-1.5-0.4-3.1-0.9-4.5-1.6c-1.4-0.7-2.6-1.7-3.4-2.8c-0.4-0.5-0.8-1.1-1.1-1.7c-0.3-0.6-0.5-1.1-0.6-1.6c-0.1-0.5-0.2-1-0.3-1.4
				c0-0.4-0.1-0.9-0.1-1.2c0-0.4,0-0.7,0-1c0-0.3,0-0.5,0-0.7C105.4,16,105.5,15.8,105.5,15.8z"/>
			<path id="XMLID_53_" class="st1" d="M140,40.1c0,0,0,0.2,0,0.5c-0.1,0.3,0,0.8-0.2,1.3c-0.1,0.3-0.2,0.6-0.3,1
				c-0.1,0.4-0.3,0.7-0.5,1.1c-0.2,0.4-0.4,0.8-0.7,1.2c-0.1,0.2-0.3,0.4-0.4,0.6c-0.2,0.2-0.3,0.4-0.5,0.6
				c-0.7,0.8-1.6,1.6-2.6,2.3c-1,0.7-2.2,1.3-3.4,1.8c-1.2,0.5-2.5,0.9-3.8,1.2c-1.3,0.3-2.6,0.5-3.9,0.7c-1.3,0.2-2.6,0.3-3.8,0.4
				c-1.2,0.1-2.4,0.2-3.6,0.3c-1.2,0.1-2.2,0.2-3.2,0.3c-1,0.2-1.9,0.3-2.7,0.6c-0.2,0.1-0.4,0.1-0.6,0.2c-0.2,0.1-0.4,0.1-0.6,0.2
				c-0.2,0.1-0.3,0.2-0.5,0.3c-0.2,0.1-0.3,0.2-0.5,0.3c-0.3,0.2-0.6,0.4-0.8,0.6c-0.2,0.2-0.5,0.4-0.6,0.6
				c-0.2,0.2-0.3,0.4-0.5,0.6c-0.1,0.2-0.2,0.3-0.3,0.5c-0.2,0.3-0.3,0.4-0.3,0.4s0-0.2,0-0.5c0-0.2,0-0.4,0-0.6
				c0-0.2,0.1-0.5,0.1-0.8c0-0.1,0.1-0.3,0.1-0.5c0.1-0.2,0.1-0.3,0.2-0.5c0.1-0.2,0.1-0.4,0.2-0.5c0.1-0.2,0.2-0.4,0.3-0.5
				c0.2-0.4,0.6-0.7,0.9-1.1c0.4-0.3,0.8-0.7,1.2-1c0.2-0.2,0.5-0.3,0.7-0.5c0.2-0.1,0.5-0.3,0.7-0.4c0.5-0.3,1-0.5,1.6-0.8
				c1.1-0.4,2.3-0.8,3.5-1.1c0.6-0.2,1.2-0.3,1.8-0.4c0.6-0.1,1.2-0.2,1.9-0.4c1.2-0.2,2.5-0.4,3.7-0.6c0.6-0.1,1.2-0.2,1.8-0.3
				c0.6-0.1,1.2-0.2,1.8-0.3c1.2-0.2,2.3-0.4,3.3-0.7c0.5-0.1,1-0.3,1.5-0.4c0.5-0.2,1-0.3,1.4-0.5c0.9-0.4,1.7-0.7,2.5-1.2
				c0.2-0.1,0.4-0.2,0.6-0.3c0.2-0.1,0.3-0.2,0.5-0.3c0.2-0.1,0.3-0.2,0.5-0.3c0.2-0.1,0.3-0.2,0.4-0.3c0.6-0.4,1-0.9,1.4-1.3
				c0.4-0.4,0.7-0.8,0.9-1C139.9,40.2,140,40.1,140,40.1L140,40.1z"/>
			<path id="XMLID_52_" class="st2" d="M116.8,30.6c0,0,0.2,0.3,0.4,0.9c0,0.1,0.1,0.3,0.2,0.5c0,0.2,0,0.4,0.1,0.6
				c0,0.2,0,0.5,0,0.8c0,0.3-0.1,0.5-0.1,0.8c0,0.3-0.2,0.6-0.3,0.9c-0.1,0.2-0.1,0.3-0.2,0.5c-0.1,0.1-0.2,0.3-0.2,0.4
				c-0.2,0.3-0.4,0.6-0.6,0.9c-0.2,0.3-0.4,0.5-0.7,0.8c-0.5,0.5-0.9,0.9-1.3,1.3c-0.4,0.4-0.8,0.8-1.2,1.2
				c-0.4,0.4-0.7,0.8-1.1,1.3c-0.2,0.2-0.4,0.4-0.5,0.6c-0.2,0.2-0.3,0.5-0.5,0.7c-0.3,0.4-0.6,0.9-0.9,1.3
				c-0.3,0.4-0.5,0.9-0.8,1.3c-0.3,0.4-0.5,0.8-0.7,1.1c-0.2,0.3-0.4,0.6-0.6,0.9c-0.2,0.3-0.3,0.4-0.4,0.6
				c-0.1,0.1-0.2,0.2-0.2,0.2l0,0c0,0,0-0.1-0.1-0.2c0-0.2-0.1-0.4-0.1-0.7c0-0.3-0.1-0.7-0.1-1.1c0-0.4,0-0.9,0-1.4
				c0-0.3,0-0.5,0.1-0.8c0-0.3,0.1-0.6,0.1-0.9c0.1-0.3,0.1-0.6,0.2-0.9c0-0.2,0.1-0.3,0.1-0.5c0.1-0.2,0.1-0.3,0.2-0.5
				c0.2-0.6,0.5-1.3,0.9-1.9c0.2-0.3,0.4-0.6,0.6-0.9l0.7-0.9c0.5-0.5,1-1,1.6-1.5c0.5-0.4,1.1-0.8,1.5-1.1c0.3-0.2,0.5-0.3,0.7-0.4
				c0.1-0.1,0.2-0.1,0.3-0.2c0.1-0.1,0.2-0.1,0.3-0.2c0.1-0.1,0.2-0.1,0.3-0.2c0.1-0.1,0.1-0.1,0.2-0.2c0.1-0.1,0.3-0.3,0.4-0.4
				c0.1-0.2,0.3-0.3,0.4-0.5c0.1-0.2,0.2-0.3,0.3-0.5c0.1-0.2,0.2-0.3,0.3-0.4c0.1-0.2,0.2-0.3,0.2-0.5
				C116.6,30.9,116.8,30.6,116.8,30.6z"/>
			<path id="XMLID_51_" class="st2" d="M114.4,59c0,0,0.2-0.1,0.5-0.2c0.3-0.1,0.8-0.4,1.4-0.6c0.6-0.2,1.4-0.5,2.2-0.8
				c0.4-0.1,0.9-0.3,1.4-0.4c0.5-0.1,1-0.2,1.6-0.4c0.6-0.1,1.2-0.2,1.8-0.3c0.6-0.1,1.3-0.1,2-0.1c1.4,0,2.9,0.1,4.4,0.5
				c1.5,0.4,3,1,4.4,1.9c1.4,0.8,2.6,1.8,3.8,2.7c1.2,0.9,2.3,1.8,3.4,2.7c1.1,0.8,2.2,1.6,3.3,2.3c1.1,0.7,2.2,1.3,3.3,1.9
				c1.1,0.6,2.1,1.1,3.1,1.5c0.5,0.2,1,0.4,1.4,0.6c0.5,0.2,0.9,0.4,1.3,0.6c0.8,0.3,1.5,0.7,2.2,0.9c0.6,0.2,1.1,0.4,1.4,0.6
				c0.3,0.1,0.5,0.2,0.5,0.2s-0.2,0-0.5,0c-0.4,0-0.9,0-1.5,0c-0.7,0-1.5-0.1-2.4-0.1c-0.9-0.1-2-0.2-3.1-0.4
				c-1.1-0.2-2.3-0.5-3.6-0.9c-0.6-0.2-1.3-0.4-1.9-0.7c-0.7-0.2-1.3-0.6-2-0.9c-1.3-0.6-2.6-1.4-3.9-2.2c-1.3-0.8-2.5-1.8-3.6-2.7
				c-1.1-0.9-2.3-1.8-3.3-2.5c-1.1-0.7-2.2-1.3-3.3-1.8c-1.1-0.4-2.3-0.7-3.4-0.9c-1.2-0.2-2.3-0.3-3.4-0.3c-1.1-0.1-2.1-0.1-3-0.1
				c-0.9,0-1.7,0-2.3,0c-0.7,0-1.2,0-1.5,0C114.6,59,114.4,59,114.4,59z"/>
			<path id="XMLID_50_" class="st1" d="M107.3,71.4c0,0,0.6-0.6,1.7-1.7c0.6-0.5,1.3-1.1,2.2-1.7c0.9-0.6,2-1.3,3.3-1.8
				c0.3-0.1,0.6-0.3,1-0.4c0.4-0.1,0.7-0.2,1.1-0.3c0.7-0.2,1.5-0.3,2.4-0.5c0.4-0.1,0.8-0.1,1.3-0.1c0.4,0,0.9,0,1.3,0
				c0.4,0.1,0.9,0.1,1.4,0.2c0.5,0.1,0.9,0.2,1.4,0.3l0.7,0.2l0.7,0.2c0.4,0.2,0.9,0.3,1.3,0.5c0.4,0.2,0.8,0.4,1.3,0.6
				c0.4,0.2,0.8,0.5,1.2,0.7c1.6,1,3,2.2,4.3,3.5c1.3,1.3,2.5,2.6,3.6,3.8c1.1,1.3,2.2,2.5,3.2,3.7c1,1.1,2,2.2,3,3.2
				c1,0.9,2,1.7,3,2.3c0.5,0.3,1,0.5,1.5,0.8c0.2,0.1,0.5,0.2,0.7,0.3c0.2,0.1,0.5,0.2,0.7,0.2c0.5,0.1,0.9,0.2,1.3,0.3
				c0.4,0.1,0.8,0.1,1.2,0.1c0.7,0.1,1.3,0,1.7,0c0.4,0,0.6,0,0.6,0s-0.2,0.1-0.6,0.3c-0.2,0.1-0.4,0.2-0.7,0.3
				c-0.1,0.1-0.3,0.1-0.5,0.2c-0.2,0-0.3,0.1-0.5,0.1c-0.4,0.1-0.8,0.2-1.3,0.3c-0.5,0.1-1,0.1-1.6,0.1c-1.1,0-2.5-0.1-3.8-0.6
				c-1.4-0.4-2.7-1.1-4.1-1.9c-0.3-0.2-0.7-0.4-1-0.7c-0.3-0.2-0.6-0.5-1-0.7c-0.7-0.5-1.3-1-1.9-1.6c-1.3-1.1-2.4-2.3-3.6-3.5
				c-1.2-1.2-2.4-2.4-3.5-3.5c-1.2-1.1-2.4-2.1-3.6-3c-0.3-0.2-0.6-0.4-0.9-0.6c-0.3-0.2-0.6-0.4-0.9-0.5c-0.3-0.2-0.6-0.3-0.9-0.5
				l-0.5-0.2l-0.5-0.2c-1.3-0.5-2.6-0.7-3.8-0.9c-0.6,0-1.3-0.1-1.9,0c-0.3,0-0.6,0-0.9,0.1c-0.3,0-0.6,0.1-0.9,0.1
				c-0.6,0.1-1.2,0.2-1.7,0.3c-0.5,0.1-1.1,0.2-1.6,0.4c-0.5,0.2-0.9,0.3-1.4,0.4c-0.4,0.1-0.8,0.2-1.2,0.4
				C108.1,71.1,107.3,71.4,107.3,71.4z"/>
			<path id="XMLID_49_" class="st1" d="M123.5,109.5c0,0-0.1,0-0.2-0.1c-0.1,0-0.3-0.1-0.5-0.2c-0.4-0.2-1-0.6-1.7-1.1
				c-0.7-0.5-1.5-1.3-2.3-2.2c-0.8-0.9-1.6-2.1-2.4-3.4c-0.7-1.3-1.4-2.9-1.9-4.6c-0.5-1.7-0.9-3.6-0.8-5.8c0.1-1.1,0.3-2.2,0.8-3.4
				c0.3-0.6,0.6-1.2,1.1-1.7c0.5-0.5,1.1-1,1.7-1.4c0.2-0.1,0.3-0.2,0.5-0.2l0.3-0.1l0.1,0l0.1,0l0.1,0c0.1,0,0.2-0.1,0.4-0.1
				c0.2,0,0.4-0.1,0.6-0.1c0.7-0.1,1.3-0.1,1.9-0.1c1.2,0.1,2.3,0.3,3.3,0.6c2.1,0.6,3.9,1.4,5.7,2.3c1.8,0.8,3.5,1.7,5.1,2.5
				c1.6,0.8,3.2,1.6,4.7,2.3c1.5,0.7,2.9,1.4,4.3,1.9c1.3,0.5,2.6,0.9,3.7,1.1c1.1,0.2,2.1,0.3,3,0.2c0.8-0.1,1.5-0.3,1.9-0.5
				c0.2-0.1,0.4-0.2,0.5-0.3c0.1-0.1,0.2-0.1,0.2-0.1s0,0-0.1,0.1c-0.1,0.1-0.2,0.2-0.4,0.4c-0.4,0.3-1,0.7-1.8,0.9
				c-0.9,0.3-2,0.4-3.2,0.4c-1.2,0-2.6-0.2-4.1-0.5c-1.5-0.3-3.1-0.7-4.7-1.2c-1.6-0.5-3.3-1-5.1-1.6c-1.8-0.6-3.5-1.2-5.3-1.8
				c-1.8-0.6-3.6-1.1-5.4-1.5c-1.7-0.4-3.4-0.7-4.1-0.4c-0.4,0.1-0.8,0.4-1.1,0.9c-0.3,0.5-0.6,1.2-0.8,1.9
				c-0.3,1.5-0.3,3.2-0.1,4.7c0.2,1.6,0.6,3,1,4.4c0.4,1.3,1,2.5,1.5,3.5c0.6,1,1.1,1.9,1.7,2.5c0.5,0.7,1,1.1,1.4,1.4
				c0.2,0.2,0.3,0.3,0.4,0.3C123.5,109.4,123.5,109.5,123.5,109.5z"/>
			<path id="XMLID_48_" class="st2" d="M126.9,82.1c0,0-0.1-0.1-0.3-0.2c-0.2-0.1-0.6-0.3-1-0.6c-0.2-0.1-0.4-0.2-0.7-0.4
				c-0.3-0.1-0.5-0.3-0.8-0.4c-0.6-0.3-1.3-0.6-2-0.9c-0.4-0.1-0.8-0.3-1.2-0.4c-0.4-0.1-0.8-0.2-1.2-0.3c-0.9-0.2-1.8-0.3-2.7-0.3
				c-0.9,0-1.8,0.1-2.7,0.3c-0.9,0.2-1.7,0.6-2.3,1.2c-0.7,0.5-1.2,1.2-1.6,2c-0.1,0.2-0.2,0.4-0.3,0.6c-0.1,0.2-0.2,0.4-0.2,0.6
				c-0.1,0.2-0.1,0.4-0.2,0.7c0,0.2-0.1,0.5-0.1,0.7c-0.1,0.4-0.1,0.9-0.2,1.4c0,0.5-0.1,0.9-0.1,1.3c0,0.4,0,0.9,0,1.3
				c0,0.4,0.1,0.8,0.1,1.2c0,0.4,0.1,0.8,0.1,1.1c0,0.4,0.1,0.7,0.1,1c0.1,0.7,0.1,1.2,0.2,1.7c0.1,1,0.2,1.5,0.2,1.5l-0.2,0.1
				c0,0-0.3-0.5-0.8-1.3c-0.3-0.4-0.5-1-0.8-1.6c-0.3-0.6-0.5-1.4-0.8-2.2c-0.1-0.4-0.2-0.8-0.4-1.3c-0.1-0.5-0.2-0.9-0.3-1.4
				c-0.1-0.5-0.1-1-0.2-1.6c0-0.5,0-1.1,0-1.7c0.1-1.1,0.3-2.3,0.9-3.5c0.5-1.2,1.3-2.3,2.4-3.1c1.1-0.8,2.3-1.4,3.6-1.6
				c1.2-0.2,2.5-0.2,3.6-0.1c1.1,0.2,2.2,0.5,3.1,0.9c0.9,0.4,1.8,0.8,2.5,1.3c0.7,0.5,1.3,1,1.9,1.4c0.3,0.2,0.5,0.5,0.7,0.7
				c0.2,0.2,0.4,0.4,0.6,0.6c0.3,0.4,0.5,0.7,0.7,0.9C126.8,82,126.9,82.1,126.9,82.1z"/>
			<path id="XMLID_47_" class="st2" d="M111.1,15.1c0,0,0-0.1,0-0.4c0-0.2,0.1-0.6,0.2-1c0.1-0.4,0.3-0.9,0.5-1.5
				c0.3-0.6,0.7-1.2,1.2-1.8c0.6-0.6,1.3-1.1,2.2-1.5c0.9-0.4,2-0.5,3-0.5c1.1,0.1,2.1,0.3,3.1,0.8c1,0.4,1.9,1,2.7,1.8l0.4,0.4
				l0.3,0.3c0.2,0.2,0.3,0.4,0.5,0.7c0.3,0.4,0.5,0.9,0.8,1.3c0.5,0.9,0.8,1.7,1.2,2.5c0.7,1.6,1.4,3,2.1,4.1c0.7,1.1,1.4,2,2,2.6
				c0.3,0.3,0.5,0.5,0.7,0.7c0.2,0.2,0.2,0.2,0.2,0.2s-0.1,0-0.3-0.1c-0.2-0.1-0.5-0.2-0.9-0.4c-0.4-0.2-0.8-0.4-1.3-0.8
				c-0.5-0.3-1-0.8-1.6-1.3c-1.1-1-2.2-2.4-3.1-3.9c-0.5-0.7-0.9-1.5-1.4-2.3c-0.2-0.4-0.5-0.7-0.7-1c-0.1-0.2-0.2-0.3-0.4-0.4
				l-0.2-0.2c0,0-0.1-0.1-0.1-0.1c-1.2-1-2.7-1.7-4.1-1.9c-0.7-0.1-1.3-0.1-2,0c-0.6,0.1-1.2,0.3-1.7,0.6c-0.5,0.3-1,0.6-1.4,1
				c-0.4,0.4-0.7,0.7-1,1c-0.3,0.3-0.5,0.6-0.6,0.7C111.2,15,111.1,15.1,111.1,15.1z"/>
			<path id="XMLID_46_" class="st2" d="M127.4,94.8c0,0,0.4,0.3,1,0.8c0.2,0.1,0.3,0.3,0.5,0.5c0.2,0.2,0.3,0.4,0.5,0.7
				c0.2,0.2,0.4,0.5,0.6,0.8c0.2,0.3,0.3,0.6,0.5,0.9c0.2,0.3,0.4,0.7,0.5,1.1c0.1,0.4,0.3,0.8,0.4,1.2c0.2,0.4,0.2,0.8,0.3,1.3
				c0.1,0.4,0.2,0.9,0.3,1.3c0.1,0.9,0.2,1.8,0.3,2.8c0.1,0.9,0,1.9,0.1,2.8c0,0.5,0,0.9,0,1.4c0,0.4,0,0.9,0,1.3
				c0,0.4,0,0.9,0.1,1.3c0,0.4,0,0.8,0.1,1.2c0,0.4,0.1,0.8,0.1,1.2c0.1,0.4,0.1,0.8,0.2,1.1c0.1,0.7,0.3,1.4,0.5,2
				c0.2,0.6,0.4,1.2,0.6,1.7c0.2,0.5,0.4,1,0.6,1.3c0.3,0.7,0.5,1.2,0.5,1.2s-0.4-0.3-1.1-0.8c-0.3-0.3-0.8-0.6-1.1-1
				c-0.2-0.2-0.4-0.5-0.6-0.7c-0.2-0.3-0.5-0.5-0.6-0.8c-0.4-0.6-0.9-1.3-1.2-2.1c-0.2-0.4-0.4-0.8-0.5-1.2
				c-0.1-0.4-0.3-0.9-0.4-1.3c-0.1-0.5-0.2-0.9-0.3-1.4c-0.1-0.5-0.2-0.9-0.2-1.4c-0.1-0.5-0.1-0.9-0.1-1.4c0-0.5-0.1-0.9-0.1-1.4
				c0-0.9-0.1-1.9-0.1-2.8c0-0.9,0-1.7,0-2.6c0-0.8,0-1.6-0.1-2.3c0-0.4-0.1-0.7-0.1-1.1c0-0.3-0.1-0.7-0.1-1
				c-0.1-0.3-0.1-0.7-0.1-0.9c-0.1-0.3-0.1-0.6-0.2-0.8c-0.1-0.3-0.1-0.5-0.2-0.8c-0.1-0.2-0.1-0.5-0.2-0.7
				C127.6,95.3,127.4,94.8,127.4,94.8z"/>
			<path id="XMLID_39_" class="st1" d="M109.8,102.1c0,0,0,0.6,0,1.7c0,0.3,0,0.6,0,0.9c0,0.3,0.1,0.6,0.1,1c0,0.2,0,0.4,0,0.5
				c0,0.2,0.1,0.4,0.1,0.6c0.1,0.4,0.1,0.8,0.2,1.2c0.2,0.8,0.4,1.8,0.7,2.7c0.2,0.5,0.3,0.9,0.5,1.4c0.2,0.5,0.4,1,0.6,1.4
				c0.1,0.2,0.2,0.5,0.3,0.7l0.4,0.7c0.3,0.5,0.5,1,0.8,1.4c0.3,0.5,0.6,0.9,0.9,1.4c0.3,0.5,0.7,0.9,1,1.3c0.3,0.5,0.7,0.9,1.1,1.3
				l0.6,0.6c0.2,0.2,0.4,0.4,0.6,0.6c0.4,0.4,0.8,0.7,1.2,1.1c0.4,0.4,0.9,0.6,1.3,1c0.8,0.7,1.8,1.1,2.6,1.7
				c0.9,0.5,1.7,0.8,2.5,1.2c0.8,0.3,1.6,0.6,2.3,0.8c0.7,0.3,1.3,0.4,1.8,0.5c1,0.3,1.7,0.5,1.7,0.5s-0.6,0.1-1.7,0.3
				c-0.3,0-0.6,0.1-0.9,0.1c-0.2,0-0.3,0-0.5,0.1c-0.2,0-0.4,0-0.6,0c-0.8,0-1.7,0-2.6-0.1c-0.9-0.2-2-0.3-3.1-0.7
				c-1.1-0.4-2.2-0.7-3.3-1.4c-0.5-0.3-1.1-0.6-1.7-1c-0.5-0.4-1-0.8-1.6-1.2c-0.6-0.4-1-0.9-1.5-1.4c-0.5-0.5-1-0.9-1.4-1.5
				c-0.4-0.5-0.8-1.1-1.2-1.6c-0.4-0.6-0.7-1.1-1-1.7c-0.3-0.6-0.5-1.2-0.8-1.8c-0.1-0.3-0.2-0.6-0.4-0.9c-0.1-0.3-0.2-0.6-0.3-0.9
				c-0.2-0.6-0.3-1.2-0.5-1.8c-0.1-0.6-0.2-1.2-0.2-1.7c-0.1-0.6-0.1-1.1-0.1-1.7c0-0.5,0-1,0.1-1.5c0.1-0.5,0.1-1,0.2-1.4
				c0-0.2,0.1-0.4,0.1-0.6c0.1-0.2,0.1-0.4,0.2-0.6c0.3-0.8,0.4-1.5,0.7-1.9C109.4,102.6,109.7,102.1,109.8,102.1L109.8,102.1z"/>
		</g>
		<path id="XMLID_35_" class="st3" d="M63.4,91.3c-1.8-1.8-4.5-2.1-6.7-0.9l-8.8-8.8c1.2-2.1,0.9-4.9-0.9-6.7
			c-2.2-2.2-5.7-2.2-7.9,0c-2.2,2.2-2.2,5.7,0,7.9c1.8,1.8,4.5,2.1,6.7,0.9l8.8,8.8c-1.2,2.1-0.9,4.9,0.9,6.7c2.2,2.2,5.7,2.2,7.9,0
			C65.6,97,65.6,93.5,63.4,91.3z M43.1,81.3c-1.4,0-2.5-1.1-2.5-2.5s1.1-2.5,2.5-2.5c1.4,0,2.5,1.1,2.5,2.5S44.5,81.3,43.1,81.3z
			 M59.5,97.7c-1.4,0-2.5-1.1-2.5-2.5c0-1.4,1.1-2.5,2.5-2.5c1.4,0,2.5,1.1,2.5,2.5C62,96.6,60.9,97.7,59.5,97.7z"/>
		<path id="XMLID_25_" class="st4" d="M76.7,95v-9.4L56,64.7c1.2-2.1,1-4.9-0.8-6.7c-2.2-2.2-5.7-2.2-7.9-0.1
			c-2.2,2.2-2.2,5.7-0.1,7.9c1.8,1.8,4.5,2.1,6.7,0.9l19.8,20V95c-2.4,0.6-4.1,2.8-4.1,5.4c0,3.1,2.5,5.6,5.6,5.6s5.6-2.5,5.6-5.6
			C80.7,97.8,79,95.7,76.7,95z M51.3,64.5c-1.4,0-2.5-1.1-2.5-2.5c0-1.4,1.1-2.5,2.5-2.5c1.4,0,2.5,1.1,2.5,2.5
			C53.8,63.4,52.7,64.5,51.3,64.5z M75.2,102.9c-1.4,0-2.5-1.1-2.5-2.5c0-1.4,1.1-2.5,2.5-2.5s2.5,1.1,2.5,2.5
			C77.7,101.8,76.6,102.9,75.2,102.9z"/>
		<path id="XMLID_23_" class="st4" d="M85.1,111.7c-2.2-2.2-5.7-2.2-7.9,0c-1.8,1.8-2.1,4.5-0.9,6.7l-7,7l-18.6-18.6
			c1.2-2.1,0.9-4.9-0.9-6.7c-2.2-2.2-5.7-2.2-7.9,0c-2.2,2.2-2.2,5.7,0,7.9c1.8,1.8,4.5,2.1,6.7,0.9l20.7,20.7l9.1-9.1
			c2.1,1.2,4.9,0.9,6.7-0.9C87.3,117.4,87.3,113.9,85.1,111.7z M45.9,106.5c-1.4,0-2.5-1.1-2.5-2.5c0-1.4,1.1-2.5,2.5-2.5
			c1.4,0,2.5,1.1,2.5,2.5C48.4,105.3,47.3,106.5,45.9,106.5z M81.2,118.1c-1.4,0-2.5-1.1-2.5-2.5c0-1.4,1.1-2.5,2.5-2.5
			c1.4,0,2.5,1.1,2.5,2.5C83.7,117,82.6,118.1,81.2,118.1z"/>
		<path id="XMLID_22_" class="st3" d="M85.1,68.5c-1.8-1.8-4.5-2.1-6.7-0.9L61.9,51V40.8c2.4-0.6,4.1-2.8,4.1-5.4
			c0-3.1-2.5-5.6-5.6-5.6s-5.6,2.5-5.6,5.6c0,2.6,1.7,4.7,4.1,5.4v11.5l17.4,17.4c-1.2,2.1-0.9,4.9,0.9,6.7c2.2,2.2,5.7,2.2,7.9,0
			C87.3,74.2,87.3,70.7,85.1,68.5z M57.9,35.4c0-1.4,1.1-2.5,2.5-2.5c1.4,0,2.5,1.1,2.5,2.5c0,1.4-1.1,2.5-2.5,2.5
			C59,38,57.9,36.8,57.9,35.4z M81.2,75c-1.4,0-2.5-1.1-2.5-2.5c0-1.4,1.1-2.5,2.5-2.5c1.4,0,2.5,1.1,2.5,2.5
			C83.7,73.8,82.6,75,81.2,75z"/>
		<path id="XMLID_16_" class="st4" d="M82.7,47.1V28.9l-9.5-9.5c1.2-2.1,0.9-4.9-0.9-6.7c-2.2-2.2-5.7-2.2-7.9,0
			c-2.2,2.2-2.2,5.7,0,7.9c1.8,1.8,4.5,2.1,6.7,0.9l8.6,8.6v17c-2.4,0.6-4.1,2.8-4.1,5.4c0,3.1,2.5,5.6,5.6,5.6s5.6-2.5,5.6-5.6
			C86.7,49.9,85,47.7,82.7,47.1z M68.3,19.2c-1.4,0-2.5-1.1-2.5-2.5c0-1.4,1.1-2.5,2.5-2.5c1.4,0,2.5,1.1,2.5,2.5
			C70.9,18.1,69.7,19.2,68.3,19.2z M81.2,55c-1.4,0-2.5-1.1-2.5-2.5c0-1.4,1.1-2.5,2.5-2.5c1.4,0,2.5,1.1,2.5,2.5
			C83.7,53.8,82.6,55,81.2,55z"/>
	</g>
	<g id="XMLID_36_">
		<g id="XMLID_341_">
			<path id="XMLID_363_" class="st5" d="M0.9,157.4h4.6v28.9h14.7v4H0.9V157.4z"/>
			<path id="XMLID_360_" class="st5" d="M36.1,166.1c7,0,12.7,5.2,12.7,12.3c0,7.2-5.7,12.4-12.7,12.4s-12.7-5.2-12.7-12.4
				C23.4,171.3,29.1,166.1,36.1,166.1z M36.1,186.9c4.5,0,8.1-3.5,8.1-8.5c0-4.9-3.6-8.4-8.1-8.4c-4.4,0-8.1,3.5-8.1,8.4
				C28,183.3,31.7,186.9,36.1,186.9z"/>
			<path id="XMLID_357_" class="st5" d="M63.2,196.1c4.1,0,7.4-1.8,7.4-6.6v-1.7c0-0.7,0-1.5,0-1.5h-0.1c-1.4,2.3-3.6,3.7-7,3.7
				c-6.6,0-10.5-5.3-10.5-12.1c0-6.8,3.8-11.8,10.3-11.8c5.7,0,7.4,3.5,7.4,3.5h0.1c0,0,0-0.3,0-0.7v-2.2h4.3v22.6
				c0,7.8-5.9,10.8-11.9,10.8c-2.8,0-5.8-0.8-8.1-2l1.5-3.5C56.7,194.5,59.7,196.1,63.2,196.1z M70.7,177.9c0-6.1-3-7.9-6.7-7.9
				c-4.1,0-6.4,3-6.4,7.8c0,4.9,2.6,8.2,6.8,8.2C67.8,186,70.7,184.1,70.7,177.9z"/>
			<path id="XMLID_354_" class="st5" d="M82.6,157.4h4.6v4.6h-4.6V157.4z M82.7,166.7h4.5v23.6h-4.5V166.7z"/>
			<path id="XMLID_352_" class="st5" d="M105.7,166.1c5.9,0,8.8,3.4,8.8,3.4l-2.1,3.2c0,0-2.5-2.7-6.5-2.7c-4.7,0-8.2,3.5-8.2,8.4
				c0,4.8,3.4,8.5,8.3,8.5c4.4,0,7.3-3.2,7.3-3.2l1.8,3.3c0,0-3.3,3.8-9.4,3.8c-7.4,0-12.6-5.3-12.6-12.3
				C93.1,171.5,98.3,166.1,105.7,166.1z"/>
			<path id="XMLID_350_" class="st5" d="M121.7,170.6h-3.1V167h3.2v-6.8h4.4v6.8h5.7v3.6h-5.7v10.5c0,4.7,3.3,5.3,5,5.3
				c0.7,0,1.1-0.1,1.1-0.1v4c0,0-0.7,0.1-1.6,0.1c-3,0-9-0.9-9-8.8V170.6z"/>
			<path id="XMLID_347_" class="st5" d="M137.8,157.4h4.6v4.6h-4.6V157.4z M137.8,166.7h4.5v23.6h-4.5V166.7z"/>
			<path id="XMLID_345_" class="st5" d="M146.7,166.7h4.8l5.7,15.9c0.5,1.3,0.7,3.2,0.8,3.2h0.1c0,0,0.4-1.9,0.8-3.2l5.7-15.9h4.7
				l-8.7,23.6h-5.2L146.7,166.7z"/>
			<path id="XMLID_342_" class="st5" d="M183.9,166.1c6.7,0,10.2,4.9,10.2,11c0,0.6-0.1,2-0.1,2h-17.2c0.2,5.2,3.9,7.8,8.1,7.8
				c4,0,7-2.7,7-2.7l1.9,3.3c0,0-3.5,3.4-9.1,3.4c-7.4,0-12.5-5.4-12.5-12.3C172.1,170.9,177.2,166.1,183.9,166.1z M189.4,175.7
				c-0.1-4-2.7-6-5.7-6c-3.4,0-6.2,2.1-6.9,6H189.4z"/>
		</g>
	</g>
</g>
<g id="XMLID_1_" class="st6">
	<g id="XMLID_290_" class="st7">
		<path id="XMLID_315_" class="st5" d="M-2.7,163.7H2v29.8h15.2v4.1H-2.7V163.7z"/>
		<path id="XMLID_312_" class="st5" d="M33.8,172.8c7.2,0,13,5.3,12.9,12.7c-0.1,7.4-6.1,12.8-13.3,12.8c-7.2,0-13-5.4-12.9-12.8
			C20.6,178.1,26.5,172.8,33.8,172.8z M33.4,194.2c4.6,0,8.4-3.6,8.5-8.7c0.1-5-3.6-8.6-8.2-8.6c-4.6,0-8.4,3.6-8.5,8.6
			C25.1,190.5,28.8,194.2,33.4,194.2z"/>
		<path id="XMLID_309_" class="st5" d="M59.8,203.7c4.2,0,7.8-1.9,8-6.8l0.1-1.8c0-0.8,0.1-1.5,0.1-1.5h-0.1
			c-1.6,2.4-3.9,3.8-7.4,3.8c-6.8,0-10.6-5.4-10.2-12.4c0.4-7,4.5-12.1,11.2-12.1c5.9,0,7.4,3.6,7.4,3.6h0.1c0,0,0-0.3,0-0.8
			l0.1-2.3h4.5l-1.2,23.3c-0.4,8-6.7,11.1-12.8,11.1c-2.9,0-5.9-0.8-8.2-2l1.7-3.6C53.2,202,56.1,203.7,59.8,203.7z M68.5,185
			c0.3-6.3-2.6-8.2-6.4-8.2c-4.2,0-6.8,3.1-7,8c-0.3,5,2.2,8.5,6.6,8.5C65,193.3,68.2,191.3,68.5,185z"/>
		<path id="XMLID_306_" class="st5" d="M81.7,163.7h4.7l-0.3,4.8h-4.7L81.7,163.7z M81.1,173.3h4.7l-1.7,24.3h-4.7L81.1,173.3z"/>
		<path id="XMLID_304_" class="st5" d="M148.9,173.3h4.6l2.6,16.5c0.1,1,0.2,3.3,0.2,3.3h0.1c0,0,0.8-2,1.5-3.3l9.1-16.5h5
			l-13.7,24.3h-5.1L148.9,173.3z"/>
		<path id="XMLID_301_" class="st5" d="M186.4,172.8c6.3,0,9.3,3.7,9.3,9c0,2-0.8,4.4-0.8,4.4h-17.7c-0.1,0.5-0.1,1-0.1,1.4
			c0,3.6,2.4,6.6,6.9,6.6c4.2,0,7.7-2.8,7.7-2.8l1.3,3.7c0,0-4,3.2-9.3,3.2c-7.1,0-11.5-4.3-11.5-10.4
			C172.3,179.8,178.2,172.8,186.4,172.8z M190.9,182.6c0,0,0.1-0.5,0.1-1.3c0-3.3-2-4.9-4.7-4.9c-3.6,0-6.9,2.4-8.4,6.2H190.9z"/>
		<g id="XMLID_298_">
			<path id="XMLID_299_" class="st5" d="M105.5,172.8c6.1,0,8.8,3.5,8.8,3.5l-2.5,3.3c0,0-2.3-2.8-6.5-2.8c-4.9,0-8.7,3.6-9.2,8.6
				c-0.4,4.9,2.8,8.7,7.8,8.7c4.5,0,7.8-3.3,7.8-3.3l1.6,3.4c0,0-3.7,3.9-10,3.9c-7.6,0-12.5-5.4-11.9-12.7
				C92,178.3,97.8,172.8,105.5,172.8z"/>
		</g>
		<g id="XMLID_294_">
			<polygon id="XMLID_297_" class="st5" points="138.9,173.3 135.3,197.6 139.9,197.6 143.6,173.3 			"/>
			<polygon id="XMLID_296_" class="st5" points="138.9,173.3 135.3,197.6 138.9,173.3 			"/>
			<polygon id="XMLID_295_" class="st5" points="140.3,163.7 139.6,168.5 144.3,168.5 145,163.7 			"/>
		</g>
		<g id="XMLID_291_">
			<path id="XMLID_292_" class="st5" d="M120.6,178.1h-3.2l0.5-3.7h3.3l1-7h4.5l-1,7h5.8l-0.5,3.7h-5.8l-1.5,10.8
				c-0.7,4.8,2.6,5.5,4.4,5.5c0.7,0,1.1-0.1,1.1-0.1l-0.6,4.1c0,0-0.7,0.1-1.6,0.1c-3.1,0-9.1-1-8-9L120.6,178.1z"/>
		</g>
	</g>
</g>
</svg>
